<?xml version="1.0" standalone="no"?>
<!DOCTYPE svg PUBLIC "-//W3C//DTD SVG 20010904//EN"
 "http://www.w3.org/TR/2001/REC-SVG-20010904/DTD/svg10.dtd">
<svg version="1.0" xmlns="http://www.w3.org/2000/svg"
 width="512.000000pt" height="512.000000pt" viewBox="0 0 512.000000 512.000000"
 preserveAspectRatio="xMidYMid meet">

<g transform="translate(0.000000,512.000000) scale(0.100000,-0.100000)"
fill="#000000" stroke="none">
<path d="M461 5104 c-165 -45 -293 -175 -336 -341 -23 -87 -23 -4319 0 -4406
45 -174 188 -311 360 -347 36 -7 158 -10 362 -8 347 5 365 8 472 79 l60 40 51
-35 c28 -19 76 -45 108 -58 54 -22 71 -23 368 -26 393 -4 443 5 570 106 60 47
116 127 146 207 l23 60 5 1531 5 1532 489 -1542 c269 -847 502 -1568 517
-1602 76 -163 237 -264 423 -264 79 0 105 6 358 86 150 47 296 98 323 112 112
60 209 192 236 320 25 124 44 61 -640 2212 -352 1108 -653 2042 -668 2075 -41
86 -123 167 -219 212 -77 37 -82 38 -194 38 l-115 0 -260 -84 c-143 -46 -273
-90 -289 -98 -29 -15 -30 -14 -50 13 -37 54 -117 123 -177 153 -97 48 -139 53
-481 49 -299 -3 -316 -4 -370 -26 -32 -13 -80 -39 -108 -58 l-51 -35 -60 40
c-108 72 -124 75 -484 78 -258 2 -330 -1 -374 -13z m662 -298 c39 -16 82 -61
96 -99 7 -18 11 -154 11 -373 l0 -344 -410 0 -410 0 0 348 c0 345 0 349 23
392 16 30 37 51 67 67 42 22 50 23 317 23 210 0 281 -3 306 -14z m1120 0 c39
-16 82 -61 96 -99 7 -18 11 -154 11 -373 l0 -344 -410 0 -410 0 0 348 c0 345
0 349 23 392 16 30 37 51 67 67 42 22 50 23 317 23 210 0 281 -3 306 -14z
m1117 -38 c18 -13 42 -35 52 -49 17 -22 218 -635 218 -663 0 -10 -768 -261
-775 -254 -13 14 -205 652 -205 681 0 48 31 108 67 132 15 11 136 54 268 96
268 87 320 94 375 57z m383 -1055 c8 -27 117 -370 242 -763 125 -393 228 -719
229 -724 1 -8 -773 -261 -778 -254 -8 11 -488 1539 -485 1541 5 4 761 245 771
246 4 1 14 -20 21 -46z m-2513 -833 l0 -810 -410 0 -410 0 0 810 0 810 410 0
410 0 0 -810z m1120 0 l0 -810 -410 0 -410 0 0 810 0 810 410 0 410 0 0 -810z
m2009 -1107 c28 -87 47 -161 43 -164 -4 -4 -173 -60 -377 -125 -203 -64 -375
-119 -382 -121 -8 -3 -30 52 -63 157 -29 89 -50 163 -48 164 4 3 761 244 770
245 4 1 30 -70 57 -156z m-3129 -173 l0 -170 -410 0 -410 0 0 170 0 170 410 0
410 0 0 -170z m1120 0 l0 -170 -410 0 -410 0 0 170 0 170 410 0 410 0 0 -170z
m2257 -606 c56 -175 102 -334 103 -352 0 -44 -21 -91 -58 -125 -23 -22 -84
-46 -278 -108 -152 -48 -266 -79 -292 -79 -55 0 -106 24 -133 61 -15 21 -215
626 -223 673 -1 9 751 255 769 252 6 -2 56 -146 112 -322z m-3377 -208 c0
-219 -4 -355 -11 -373 -5 -15 -22 -41 -37 -57 -50 -53 -67 -56 -365 -56 -267
0 -275 1 -317 23 -30 16 -51 37 -67 67 -23 43 -23 47 -23 392 l0 348 410 0
410 0 0 -344z m1120 0 c0 -219 -4 -355 -11 -373 -5 -15 -22 -41 -37 -57 -50
-53 -67 -56 -365 -56 -267 0 -275 1 -317 23 -30 16 -51 37 -67 67 -23 43 -23
47 -23 392 l0 348 410 0 410 0 0 -344z"/>
</g>
</svg>
