<?xml version="1.0" standalone="no"?>
<!DOCTYPE svg PUBLIC "-//W3C//DTD SVG 20010904//EN"
 "http://www.w3.org/TR/2001/REC-SVG-20010904/DTD/svg10.dtd">
<svg version="1.0" xmlns="http://www.w3.org/2000/svg"
 width="512.000000pt" height="512.000000pt" viewBox="0 0 512.000000 512.000000"
 preserveAspectRatio="xMidYMid meet">

<g transform="translate(0.000000,512.000000) scale(0.100000,-0.100000)"
fill="#000000" stroke="none">
<path d="M980 4909 c-137 -23 -263 -121 -328 -256 l-37 -78 0 -1715 0 -1715
37 -78 c46 -96 119 -172 205 -213 l62 -29 0 -125 c1 -195 37 -299 136 -388
204 -184 521 -122 638 125 31 66 32 73 35 216 l3 147 829 0 829 0 3 -147 c3
-143 4 -150 35 -216 117 -247 434 -309 638 -125 99 89 135 193 136 388 l0 125
62 29 c86 41 159 117 205 213 l37 78 3 1680 c2 1262 0 1694 -9 1735 -38 179
-188 321 -369 350 -82 12 -3071 12 -3150 -1z m3230 -1534 l0 -555 -1650 0
-1650 0 0 555 0 555 1650 0 1650 0 0 -555z m-2722 -1305 c18 -11 41 -34 52
-52 18 -30 20 -51 20 -259 0 -219 -1 -227 -23 -260 -30 -45 -100 -74 -153 -64
-54 10 -111 70 -119 128 -4 23 -5 129 -3 234 3 176 5 194 24 220 53 71 136 93
202 53z m2292 -2 c73 -50 75 -57 78 -285 4 -230 -4 -271 -59 -317 -63 -54
-169 -37 -216 33 -22 33 -23 41 -23 260 0 208 2 229 20 259 43 70 136 93 200
50z"/>
<path d="M244 4362 c-97 -63 -171 -157 -216 -278 -23 -59 -23 -63 -26 -732
l-3 -673 22 -39 c24 -42 85 -80 129 -80 48 0 108 39 128 83 19 40 20 76 27
900 3 471 5 857 2 857 -2 0 -31 -17 -63 -38z"/>
<path d="M4816 3538 c6 -846 7 -864 27 -900 22 -40 84 -78 127 -78 48 0 108
39 130 85 21 43 21 50 18 711 l-3 669 -27 69 c-47 121 -136 228 -237 284 l-41
23 6 -863z"/>
</g>
</svg>
