<?xml version="1.0" standalone="no"?>
<!DOCTYPE svg PUBLIC "-//W3C//DTD SVG 20010904//EN"
 "http://www.w3.org/TR/2001/REC-SVG-20010904/DTD/svg10.dtd">
<svg version="1.0" xmlns="http://www.w3.org/2000/svg"
 width="512.000000pt" height="513.000000pt" viewBox="0 0 512.000000 513.000000"
 preserveAspectRatio="xMidYMid meet">

<g transform="translate(0.000000,513.000000) scale(0.100000,-0.100000)"
fill="#000000" stroke="none">
<path d="M2880 5125 c-8 -2 -49 -9 -90 -15 -258 -42 -514 -201 -681 -423 -77
-102 -152 -256 -186 -382 -24 -90 -27 -117 -27 -275 0 -158 3 -185 27 -275 82
-307 295 -569 577 -712 84 -43 224 -88 322 -103 112 -18 331 -8 438 20 192 51
346 137 492 278 147 141 252 320 305 517 24 90 27 117 27 275 0 157 -3 185
-27 272 -109 408 -431 716 -841 804 -65 14 -301 28 -336 19z m335 -225 c383
-99 653 -433 672 -830 31 -652 -616 -1115 -1229 -879 -273 106 -489 362 -549
654 -102 493 222 976 718 1070 105 20 282 13 388 -15z"/>
<path d="M2918 4713 c-37 -23 -48 -53 -48 -132 0 -67 -1 -69 -31 -81 -17 -7
-52 -34 -78 -60 -147 -142 -108 -387 76 -479 23 -11 73 -25 110 -31 57 -7 73
-14 96 -40 30 -34 34 -67 12 -110 -36 -70 -128 -67 -195 5 -57 61 -124 69
-171 19 -34 -36 -32 -89 5 -137 29 -38 138 -117 161 -117 9 0 14 -24 16 -86 4
-79 6 -87 32 -110 19 -16 40 -24 67 -24 27 0 48 8 67 24 26 22 28 31 31 109 4
79 6 86 26 91 13 3 44 24 70 47 194 171 104 482 -151 521 -85 13 -111 25 -129
60 -23 44 -17 77 20 114 49 49 101 43 179 -22 71 -59 182 6 162 96 -8 35 -69
93 -130 122 l-45 22 0 69 c0 76 -17 118 -57 136 -33 15 -63 13 -95 -6z"/>
<path d="M4609 2982 c-78 -26 -129 -64 -244 -184 -55 -56 -196 -201 -313 -321
l-213 -219 -45 42 c-58 54 -138 90 -222 101 -37 4 -314 8 -616 9 l-549 0 -93
30 c-141 45 -250 61 -414 61 -282 0 -509 -65 -728 -207 -112 -73 -263 -224
-335 -335 l-56 -86 -70 -5 c-119 -9 -138 -23 -433 -318 l-268 -267 0 -47 0
-48 576 -582 c317 -319 586 -586 598 -593 28 -16 61 -16 94 1 15 8 147 135
293 283 304 306 304 307 298 451 l-4 77 76 70 c121 113 58 105 879 105 433 0
738 4 789 10 168 22 339 95 468 202 74 61 990 1160 1019 1223 21 43 24 66 24
165 0 106 -2 120 -28 175 -39 81 -107 149 -190 188 -86 40 -205 48 -293 19z
m215 -205 c65 -37 99 -88 104 -155 3 -38 -1 -70 -11 -94 -19 -45 -862 -1058
-952 -1144 -73 -70 -166 -122 -275 -155 -74 -23 -81 -23 -855 -29 -540 -4
-790 -9 -812 -17 -69 -24 -153 -77 -220 -138 l-70 -64 -391 392 -392 392 48
75 c192 298 510 461 900 461 153 0 249 -15 368 -58 l79 -28 615 -5 c613 -5
615 -5 657 -27 144 -77 144 -279 0 -356 -41 -22 -49 -22 -500 -27 l-459 -5
-24 -28 c-34 -40 -32 -88 5 -129 l29 -33 417 -3 c446 -3 524 2 609 41 139 64
247 239 235 381 -3 33 13 52 334 383 199 204 355 357 379 371 55 30 129 30
182 -1z m-3602 -1564 l448 -448 0 -45 0 -45 -214 -212 c-118 -117 -218 -213
-223 -213 -4 0 -229 221 -498 490 l-490 490 222 222 222 221 42 -6 c41 -5 64
-27 491 -454z"/>
<path d="M2239 1805 c-53 -29 -61 -105 -17 -152 43 -46 125 -37 153 18 49 95
-43 185 -136 134z"/>
</g>
</svg>
