<?xml version="1.0" standalone="no"?>
<!DOCTYPE svg PUBLIC "-//W3C//DTD SVG 20010904//EN"
 "http://www.w3.org/TR/2001/REC-SVG-20010904/DTD/svg10.dtd">
<svg version="1.0" xmlns="http://www.w3.org/2000/svg"
 width="512.000000pt" height="512.000000pt" viewBox="0 0 512.000000 512.000000"
 preserveAspectRatio="xMidYMid meet">

<g transform="translate(0.000000,512.000000) scale(0.100000,-0.100000)"
fill="#000000" stroke="none">
<path d="M1136 5104 c-32 -10 -64 -31 -96 -63 -74 -74 -80 -104 -80 -413 l0
-258 441 0 440 0 -15 22 c-13 19 -16 60 -16 250 0 215 1 229 20 248 24 24 38
25 68 4 20 -14 22 -23 22 -110 l0 -94 105 0 105 0 0 90 c0 77 3 93 20 110 24
24 38 25 68 4 22 -15 22 -19 22 -251 0 -206 -2 -239 -17 -255 -16 -17 -2 -18
425 -18 l442 0 0 273 c0 265 -1 273 -24 323 -28 60 -91 117 -154 138 -67 23
-1701 23 -1776 0z"/>
<path d="M1920 4498 c0 -71 -4 -95 -17 -110 -16 -17 -11 -18 121 -18 l137 0
-15 22 c-12 16 -16 47 -16 110 l0 88 -105 0 -105 0 0 -92z"/>
<path d="M527 4259 c-76 -18 -140 -69 -180 -143 l-22 -41 -3 -1662 -2 -1663
615 0 615 0 0 408 c0 442 1 456 57 566 32 64 125 157 189 189 107 54 235 71
343 46 177 -40 331 -206 360 -389 6 -37 11 -227 11 -442 l0 -378 610 0 610 0
0 1648 c0 1104 -4 1659 -10 1684 -17 60 -69 119 -135 153 l-59 30 -1480 2
c-846 0 -1497 -3 -1519 -8z m652 -1025 c43 -30 51 -71 51 -249 0 -264 -1 -265
-270 -265 -269 0 -270 1 -270 265 0 267 -3 265 270 265 165 0 199 -3 219 -16z
m1082 -13 l29 -29 0 -196 c0 -122 -4 -204 -11 -220 -24 -51 -56 -58 -266 -54
l-193 3 -27 28 -28 27 -3 193 c-4 207 3 242 51 265 13 6 105 11 220 11 l199 1
29 -29z m1043 18 c51 -24 58 -56 54 -266 l-3 -193 -28 -27 -27 -28 -193 -3
c-210 -4 -242 3 -266 54 -7 16 -11 98 -11 220 l0 196 29 29 29 29 196 0 c122
0 204 -4 220 -11z m-2125 -1285 c43 -30 51 -71 51 -249 0 -264 -1 -265 -270
-265 -269 0 -270 1 -270 265 0 267 -3 265 270 265 165 0 199 -3 219 -16z
m2125 5 c51 -24 58 -56 54 -266 l-3 -193 -28 -27 -27 -28 -193 -3 c-210 -4
-242 3 -266 54 -7 16 -11 98 -11 220 l0 196 29 29 29 29 196 0 c122 0 204 -4
220 -11z"/>
<path d="M3840 1815 l0 -1065 480 0 480 0 0 948 c0 1079 4 1019 -80 1102 -77
78 -91 80 -517 80 l-363 0 0 -1065z m584 144 c51 -24 58 -56 54 -266 l-3 -193
-28 -27 -27 -28 -193 -3 c-210 -4 -242 3 -266 54 -7 16 -11 98 -11 220 l0 196
29 29 29 29 196 0 c122 0 204 -4 220 -11z"/>
<path d="M176 624 c-68 -21 -139 -94 -160 -165 -21 -68 -21 -210 0 -278 11
-39 29 -67 64 -101 86 -87 -145 -80 2480 -80 2625 0 2394 -7 2480 80 60 59 80
119 80 240 0 121 -20 181 -80 240 -87 87 146 80 -2484 79 -2037 0 -2337 -2
-2380 -15z"/>
</g>
</svg>
