<?xml version="1.0" standalone="no"?>
<!DOCTYPE svg PUBLIC "-//W3C//DTD SVG 20010904//EN"
 "http://www.w3.org/TR/2001/REC-SVG-20010904/DTD/svg10.dtd">
<svg version="1.0" xmlns="http://www.w3.org/2000/svg"
 width="512.000000pt" height="512.000000pt" viewBox="0 0 512.000000 512.000000"
 preserveAspectRatio="xMidYMid meet">

<g transform="translate(0.000000,512.000000) scale(0.100000,-0.100000)"
fill="#000000" stroke="none">
<path d="M1372 3906 c-873 -437 -1155 -582 -1175 -605 -48 -57 -48 -145 0
-202 20 -23 302 -168 1175 -605 938 -469 1156 -574 1188 -574 32 0 214 87 980
470 l940 470 0 -495 c0 -272 -4 -495 -8 -495 -20 0 -97 -90 -121 -140 -21 -45
-26 -69 -26 -135 1 -71 4 -87 34 -143 38 -70 70 -100 145 -140 43 -22 64 -26
136 -26 72 0 93 4 136 26 75 40 107 70 145 140 30 56 33 72 34 143 0 66 -5 90
-26 135 -24 51 -100 140 -120 140 -5 0 -9 249 -9 575 l0 575 49 24 c26 14 60
39 74 56 48 56 48 144 0 201 -20 23 -302 168 -1175 605 -939 469 -1156 574
-1188 574 -32 0 -249 -105 -1188 -574z"/>
<path d="M1120 1755 c0 -405 3 -512 14 -538 17 -42 105 -120 232 -207 628
-428 1434 -487 2120 -155 220 106 469 287 500 362 11 26 14 133 14 538 0 278
-2 505 -5 505 -3 0 -289 -142 -635 -315 -347 -174 -656 -322 -688 -330 -31 -8
-81 -15 -112 -15 -31 0 -81 7 -112 15 -32 8 -341 156 -688 330 -346 173 -632
315 -635 315 -3 0 -5 -227 -5 -505z"/>
</g>
</svg>
