<?xml version="1.0" standalone="no"?>
<!DOCTYPE svg PUBLIC "-//W3C//DTD SVG 20010904//EN"
 "http://www.w3.org/TR/2001/REC-SVG-20010904/DTD/svg10.dtd">
<svg version="1.0" xmlns="http://www.w3.org/2000/svg"
 width="512.000000pt" height="512.000000pt" viewBox="0 0 512.000000 512.000000"
 preserveAspectRatio="xMidYMid meet">

<g transform="translate(0.000000,512.000000) scale(0.100000,-0.100000)"
fill="#000000" stroke="none">
<path d="M2333 5104 c-105 -17 -203 -52 -309 -108 -251 -134 -423 -353 -506
-644 -20 -72 -22 -103 -25 -507 -4 -426 -4 -431 18 -490 30 -79 114 -165 187
-191 48 -17 53 -23 63 -59 47 -183 169 -360 326 -471 38 -28 63 -53 63 -64 0
-21 18 -17 -354 -85 -252 -46 -312 -64 -401 -120 -46 -29 -175 -158 -175 -175
0 -5 -50 12 -112 36 -61 24 -113 44 -115 44 -1 0 -3 -119 -3 -263 l0 -264 -60
-16 c-71 -20 -129 -68 -159 -131 -19 -39 -21 -60 -21 -267 0 -204 2 -228 21
-269 35 -77 94 -125 171 -138 l43 -8 5 -152 5 -153 782 -305 783 -304 782 304
783 305 5 153 5 152 43 8 c77 13 136 61 171 138 19 41 21 65 21 269 0 207 -2
228 -21 267 -30 63 -88 111 -159 131 l-60 16 0 265 c0 247 -1 264 -17 257 -10
-3 -60 -23 -111 -42 l-93 -36 -69 76 c-125 135 -189 162 -516 222 -372 68
-354 64 -354 85 0 11 25 36 63 63 159 114 278 285 326 472 9 36 15 42 63 59
72 25 157 112 186 189 21 56 22 70 22 530 0 382 -3 482 -15 527 -39 148 -141
274 -274 337 -42 20 -101 59 -131 86 -255 232 -557 325 -877 271z m412 -184
c120 -38 237 -106 343 -200 53 -48 113 -92 131 -98 88 -31 169 -100 210 -179
33 -66 41 -147 41 -421 0 -248 -1 -264 -17 -257 -10 4 -30 12 -45 17 -25 9
-28 15 -28 53 l0 42 -182 6 c-188 6 -254 17 -353 59 -114 48 -221 133 -312
251 l-45 58 -91 -88 c-119 -115 -168 -153 -247 -196 -86 -47 -189 -75 -311
-83 l-99 -7 0 -42 c0 -38 -3 -44 -27 -53 -16 -5 -36 -13 -45 -17 -17 -7 -18 5
-18 171 0 99 5 220 11 269 44 357 310 651 663 731 95 21 331 13 421 -16z
m-199 -984 c173 -145 367 -216 586 -216 l90 0 -4 -267 c-4 -245 -6 -274 -27
-338 -36 -111 -87 -193 -171 -276 -84 -84 -193 -146 -305 -174 -76 -19 -234
-19 -310 0 -223 56 -404 228 -476 450 -21 64 -23 93 -27 337 l-4 267 39 6
c187 32 348 109 478 228 28 26 51 46 53 47 1 0 36 -29 78 -64z m-806 -461 c0
-110 -3 -135 -14 -135 -19 0 -55 51 -67 95 -13 47 5 110 41 147 16 15 31 28
34 28 3 0 6 -61 6 -135z m1704 75 c29 -50 26 -118 -7 -169 -49 -73 -57 -59
-57 95 l0 136 23 -14 c12 -9 31 -30 41 -48z m-979 -1061 c82 -11 200 -5 269
12 21 6 40 8 42 6 3 -2 -45 -41 -106 -87 l-110 -82 -110 82 c-60 45 -110 84
-110 87 0 3 10 2 23 -1 12 -3 58 -11 102 -17z m-144 -180 c60 -45 109 -84 109
-88 0 -10 -159 -166 -163 -160 -11 12 -106 313 -101 320 13 22 55 3 155 -72z
m633 72 c5 -7 -90 -308 -101 -320 -6 -7 -164 152 -160 162 1 5 50 44 107 88
97 72 141 92 154 70z m-872 -293 c48 -144 85 -264 83 -266 -5 -6 -765 287
-779 300 -16 13 82 98 150 130 43 20 118 40 241 63 98 18 187 34 198 34 18 1
31 -32 107 -261z m1252 228 c134 -25 206 -43 251 -65 66 -30 164 -117 149
-130 -15 -13 -774 -304 -779 -299 -8 8 169 528 181 528 5 0 95 -15 198 -34z
m-609 -366 c87 -87 157 -161 155 -163 -3 -2 -76 -31 -162 -65 l-158 -60 -157
60 c-87 34 -160 63 -163 65 -4 4 311 323 320 323 3 0 77 -72 165 -160z m-872
-190 l627 -244 0 -654 c0 -519 -3 -653 -12 -649 -7 3 -285 111 -618 240 -333
129 -624 243 -647 252 l-43 17 0 113 0 113 43 25 c59 35 134 118 163 180 85
188 13 419 -163 524 l-43 25 0 164 0 164 33 -13 c17 -8 314 -123 660 -257z
m2107 106 l0 -164 -42 -25 c-177 -105 -249 -336 -164 -524 29 -62 104 -145
163 -180 l43 -25 0 -113 c0 -81 -4 -114 -12 -118 -7 -3 -299 -116 -648 -252
-349 -136 -641 -249 -647 -252 -10 -4 -13 130 -13 649 l0 654 658 257 c361
140 658 256 660 256 1 1 2 -73 2 -163z m-2888 -308 c57 -17 121 -78 148 -140
38 -89 15 -202 -57 -270 -59 -56 -174 -86 -214 -55 -34 26 -39 54 -39 232 0
221 8 242 89 244 18 1 51 -4 73 -11z m3093 6 c37 -15 45 -56 45 -239 0 -178
-5 -206 -39 -232 -24 -19 -91 -15 -141 8 -88 40 -138 111 -147 210 -12 130 99
256 229 258 20 1 44 -2 53 -5z"/>
</g>
</svg>
