<?xml version="1.0" standalone="no"?>
<!DOCTYPE svg PUBLIC "-//W3C//DTD SVG 20010904//EN"
 "http://www.w3.org/TR/2001/REC-SVG-20010904/DTD/svg10.dtd">
<svg version="1.0" xmlns="http://www.w3.org/2000/svg"
 width="512.000000pt" height="512.000000pt" viewBox="0 0 512.000000 512.000000"
 preserveAspectRatio="xMidYMid meet">

<g transform="translate(0.000000,512.000000) scale(0.100000,-0.100000)"
fill="#000000" stroke="none">
<path d="M2410 4306 c-284 -61 -508 -252 -601 -514 -125 -355 4 -736 319 -943
134 -88 258 -124 432 -124 226 0 408 75 564 231 156 156 231 338 231 564 0
174 -36 298 -124 432 -114 174 -272 288 -481 345 -78 21 -260 26 -340 9z"/>
<path d="M821 3665 c-110 -24 -226 -89 -311 -175 -314 -315 -224 -837 178
-1027 191 -90 411 -81 592 24 83 49 184 150 233 233 61 105 82 186 82 320 0
91 -5 130 -22 185 -101 318 -428 510 -752 440z"/>
<path d="M4021 3665 c-110 -24 -226 -89 -311 -175 -314 -315 -224 -837 178
-1027 191 -90 411 -81 592 24 132 77 246 221 293 368 31 99 31 271 0 370 -101
318 -428 510 -752 440z"/>
<path d="M1904 2504 c-174 -118 -333 -334 -403 -549 -54 -164 -54 -161 -58
-672 l-4 -483 1121 0 1121 0 -4 483 c-4 511 -4 508 -58 672 -70 215 -229 431
-403 549 -50 34 -112 35 -181 3 -68 -32 -169 -65 -246 -81 l-64 -13 -5 -436
c-5 -420 -6 -437 -26 -463 -32 -44 -68 -66 -116 -71 -58 -7 -108 15 -144 63
l-29 37 -5 436 -5 436 -25 3 c-62 8 -187 45 -259 77 -99 44 -152 46 -207 9z"/>
<path d="M513 2261 c-120 -77 -245 -231 -293 -359 -55 -145 -55 -148 -55 -588
l0 -411 29 -37 c50 -66 49 -66 510 -66 l415 0 4 493 c3 460 5 498 25 588 29
127 66 236 113 333 21 44 36 82 34 85 -3 3 -27 -1 -53 -8 -26 -8 -69 -20 -97
-28 -121 -34 -304 -26 -433 18 -86 30 -129 26 -199 -20z"/>
<path d="M3820 2296 c0 -3 17 -40 39 -83 46 -93 85 -208 113 -335 20 -86 22
-131 25 -586 l4 -493 429 3 c415 3 429 4 456 24 15 11 37 33 48 48 20 27 21
39 21 439 0 441 0 444 -55 589 -68 181 -283 398 -395 398 -23 0 -62 -7 -86
-16 -158 -56 -360 -56 -518 0 -42 15 -81 21 -81 12z"/>
</g>
</svg>
